<svg xmlns="http://www.w3.org/2000/svg" viewBox="0 0 64 64" fill="none">
  <defs>
    <linearGradient id="cfFaviconGradient" x1="8" y1="46" x2="52" y2="10" gradientUnits="userSpaceOnUse">
      <stop offset="0%" stop-color="#2c6b27" />
      <stop offset="55%" stop-color="#5aa64f" />
      <stop offset="100%" stop-color="#f4a862" />
    </linearGradient>
  </defs>
  <path
    d="M22 20c-7.18 0-13 5.82-13 13s5.82 13 13 13c4.86 0 8.9-2.63 11.2-6.66.2-.35.7-.35.9 0C36.4 43.37 40.44 46 45.3 46c1.6 0 3.13-.28 4.55-.8"
    stroke="url(#cfFaviconGradient)"
    stroke-width="3.4"
    stroke-linecap="round"
  />
  <path
    d="M45.3 20c-4.86 0-8.9 2.63-11.2 6.66"
    stroke="url(#cfFaviconGradient)"
    stroke-width="3.4"
    stroke-linecap="round"
  />
  <circle cx="45.3" cy="20" r="12" stroke="url(#cfFaviconGradient)" stroke-width="3.2" fill="none" />
  <path d="M40 21.5c1 1.6 2.6 2.6 4.6 2.6s3.6-1 4.6-2.6" stroke="url(#cfFaviconGradient)" stroke-width="2.2" stroke-linecap="round" fill="none" />
  <circle cx="41.6" cy="15.6" r="1.15" fill="#2c6b27" />
  <circle cx="49" cy="15.6" r="1.15" fill="#f4a862" />
  <path d="M52 40v8M48 44h8" stroke="#2c6b27" stroke-width="3" stroke-linecap="round" />
</svg>
